<?xml version="1.0" standalone="no"?><!DOCTYPE svg PUBLIC "-//W3C//DTD SVG 1.1//EN" "http://www.w3.org/Graphics/SVG/1.1/DTD/svg11.dtd"><svg t="1633015211668" class="icon" viewBox="0 0 1024 1024" version="1.1" xmlns="http://www.w3.org/2000/svg" p-id="6296" xmlns:xlink="http://www.w3.org/1999/xlink" width="32" height="32"><defs><style type="text/css"></style></defs><path d="M921.6 0H102.4a102.4 102.4 0 0 0-102.4 102.4v819.2a102.4 102.4 0 0 0 102.4 102.4h819.2a102.4 102.4 0 0 0 102.4-102.4V102.4a102.4 102.4 0 0 0-102.4-102.4zM341.504 636.416a22.016 22.016 0 1 1-31.232 31.232l-140.8-140.8a22.016 22.016 0 0 1 0-31.232l140.8-140.8a22.016 22.016 0 0 1 31.232 0 22.528 22.528 0 0 1 0 31.744L216.576 512z m329.728-390.656L392.704 801.28a23.04 23.04 0 0 1-31.744 8.704 23.04 23.04 0 0 1-8.192-31.744l278.016-556.032a23.552 23.552 0 0 1 40.448 23.552z m183.296 281.088L713.728 665.6a22.528 22.528 0 0 1-31.744 0 22.016 22.016 0 0 1 0-31.232L807.424 512l-125.44-125.44a22.528 22.528 0 1 1 31.744-31.744l140.8 140.8a22.016 22.016 0 0 1 0 31.232z" fill="#1296db" p-id="6297"></path></svg>